<svg width="112" height="15" viewBox="0 0 112 15" fill="none" xmlns="http://www.w3.org/2000/svg">
<path d="M9.28789 0.319935V11.7839H7.73589V6.56794H1.55189V11.7839H-0.000111222V0.319935H1.55189V5.43194H7.73589V0.319935H9.28789ZM19.9706 1.62393H16.2586V11.7839H14.7146V1.62393H10.9946V0.319935H19.9706V1.62393ZM33.5998 0.319935V11.7839H32.2398V3.35993C32.2398 3.24794 32.2424 3.12794 32.2478 2.99994C32.2584 2.87193 32.2691 2.74127 32.2798 2.60793L28.3438 9.77594C28.2211 10.0159 28.0344 10.1359 27.7838 10.1359H27.5598C27.3091 10.1359 27.1224 10.0159 26.9998 9.77594L22.9838 2.57594C23.0158 2.8586 23.0318 3.11994 23.0318 3.35993V11.7839H21.6718V0.319935H22.8158C22.9544 0.319935 23.0611 0.333268 23.1358 0.359935C23.2104 0.386601 23.2824 0.461268 23.3518 0.583935L27.3118 7.63994C27.3758 7.76794 27.4371 7.90127 27.4958 8.03994C27.5598 8.1786 27.6184 8.31994 27.6718 8.46394C27.7251 8.31994 27.7811 8.1786 27.8398 8.03994C27.8984 7.89594 27.9624 7.75994 28.0318 7.63194L31.9198 0.583935C31.9838 0.461268 32.0531 0.386601 32.1278 0.359935C32.2078 0.333268 32.3171 0.319935 32.4558 0.319935H33.5998ZM43.0351 10.4799V11.7839H36.5311V0.319935H38.0751V10.4799H43.0351ZM53.916 7.52794L52.116 2.86394C52.0627 2.72527 52.0067 2.56527 51.948 2.38393C51.8893 2.19727 51.8333 1.99994 51.78 1.79193C51.668 2.22393 51.5533 2.58393 51.436 2.87193L49.636 7.52794H53.916ZM57.148 11.7839H55.948C55.8093 11.7839 55.6973 11.7493 55.612 11.6799C55.5267 11.6106 55.4627 11.5226 55.42 11.4159L54.348 8.64794H49.204L48.132 11.4159C48.1 11.5119 48.0387 11.5973 47.948 11.6719C47.8573 11.7466 47.7453 11.7839 47.612 11.7839H46.412L50.996 0.319935H52.564L57.148 11.7839ZM63.7414 5.11994C63.6987 5.1786 63.6561 5.22394 63.6134 5.25594C63.5707 5.28794 63.5121 5.30394 63.4374 5.30394C63.3574 5.30394 63.2694 5.27194 63.1734 5.20794C63.0774 5.1386 62.9574 5.06394 62.8134 4.98394C62.6747 4.90394 62.5014 4.83194 62.2934 4.76794C62.0907 4.6986 61.8401 4.66394 61.5414 4.66394C61.1414 4.66394 60.7894 4.73594 60.4854 4.87994C60.1814 5.0186 59.9254 5.22127 59.7174 5.48794C59.5147 5.7546 59.3601 6.07727 59.2534 6.45594C59.1521 6.8346 59.1014 7.2586 59.1014 7.72794C59.1014 8.2186 59.1574 8.65594 59.2694 9.03994C59.3814 9.4186 59.5387 9.7386 59.7414 9.99994C59.9494 10.2559 60.1974 10.4533 60.4854 10.5919C60.7787 10.7253 61.1067 10.7919 61.4694 10.7919C61.8161 10.7919 62.1014 10.7519 62.3254 10.6719C62.5494 10.5866 62.7334 10.4933 62.8774 10.3919C63.0267 10.2906 63.1494 10.1999 63.2454 10.1199C63.3467 10.0346 63.4454 9.99194 63.5414 9.99194C63.6587 9.99194 63.7494 10.0373 63.8134 10.1279L64.2134 10.6479C64.0374 10.8666 63.8374 11.0533 63.6134 11.2079C63.3894 11.3626 63.1467 11.4933 62.8854 11.5999C62.6294 11.7013 62.3601 11.7759 62.0774 11.8239C61.7947 11.8719 61.5067 11.8959 61.2134 11.8959C60.7067 11.8959 60.2347 11.8026 59.7974 11.6159C59.3654 11.4293 58.9894 11.1599 58.6694 10.8079C58.3494 10.4506 58.0987 10.0133 57.9174 9.49594C57.7361 8.9786 57.6454 8.38927 57.6454 7.72794C57.6454 7.12527 57.7281 6.56794 57.8934 6.05594C58.0641 5.54394 58.3094 5.10394 58.6294 4.73594C58.9547 4.3626 59.3521 4.07194 59.8214 3.86393C60.2961 3.65594 60.8401 3.55194 61.4534 3.55194C62.0241 3.55194 62.5254 3.64527 62.9574 3.83194C63.3947 4.01327 63.7814 4.27194 64.1174 4.60794L63.7414 5.11994ZM70.134 8.13594C69.478 8.15727 68.918 8.2106 68.454 8.29594C67.9953 8.37594 67.6193 8.4826 67.326 8.61594C67.038 8.74927 66.8273 8.9066 66.694 9.08794C66.566 9.26927 66.502 9.47194 66.502 9.69594C66.502 9.90927 66.5367 10.0933 66.606 10.2479C66.6753 10.4026 66.7687 10.5306 66.886 10.6319C67.0087 10.7279 67.15 10.7999 67.31 10.8479C67.4753 10.8906 67.6513 10.9119 67.838 10.9119C68.0887 10.9119 68.318 10.8879 68.526 10.8399C68.734 10.7866 68.9287 10.7119 69.11 10.6159C69.2967 10.5199 69.4727 10.4053 69.638 10.2719C69.8087 10.1386 69.974 9.9866 70.134 9.81594V8.13594ZM65.534 4.82394C65.982 4.39194 66.4647 4.06927 66.982 3.85594C67.4993 3.6426 68.0727 3.53594 68.702 3.53594C69.1553 3.53594 69.558 3.6106 69.91 3.75994C70.262 3.90927 70.558 4.11727 70.798 4.38393C71.038 4.6506 71.2193 4.97327 71.342 5.35194C71.4647 5.7306 71.526 6.1466 71.526 6.59994V11.7839H70.894C70.7553 11.7839 70.6487 11.7626 70.574 11.7199C70.4993 11.6719 70.4407 11.5813 70.398 11.4479L70.238 10.6799C70.0247 10.8773 69.8167 11.0533 69.614 11.2079C69.4113 11.3573 69.198 11.4853 68.974 11.5919C68.75 11.6933 68.51 11.7706 68.254 11.8239C68.0033 11.8826 67.7233 11.9119 67.414 11.9119C67.0993 11.9119 66.8033 11.8693 66.526 11.7839C66.2487 11.6933 66.006 11.5599 65.798 11.3839C65.5953 11.2079 65.4327 10.9866 65.31 10.7199C65.1927 10.4479 65.134 10.1279 65.134 9.75994C65.134 9.43994 65.222 9.13327 65.398 8.83994C65.574 8.54127 65.8593 8.27727 66.254 8.04794C66.6487 7.8186 67.1633 7.63194 67.798 7.48794C68.4327 7.3386 69.2113 7.25327 70.134 7.23194V6.59994C70.134 5.9706 69.998 5.49594 69.726 5.17594C69.454 4.8506 69.0567 4.68794 68.534 4.68794C68.182 4.68794 67.886 4.73327 67.646 4.82394C67.4113 4.90927 67.206 5.00794 67.03 5.11994C66.8593 5.2266 66.71 5.32527 66.582 5.41594C66.4593 5.50127 66.3367 5.54394 66.214 5.54394C66.118 5.54394 66.0353 5.51994 65.966 5.47194C65.8967 5.4186 65.838 5.3546 65.79 5.27994L65.534 4.82394ZM78.9751 5.60794C78.7085 5.2506 78.4205 5.0026 78.1111 4.86393C77.8018 4.71994 77.4551 4.64794 77.0711 4.64794C76.3191 4.64794 75.7405 4.91727 75.3351 5.45594C74.9298 5.9946 74.7271 6.7626 74.7271 7.75994C74.7271 8.28794 74.7725 8.74127 74.8631 9.11994C74.9538 9.49327 75.0871 9.8026 75.2631 10.0479C75.4391 10.2879 75.6551 10.4639 75.9111 10.5759C76.1671 10.6879 76.4578 10.7439 76.7831 10.7439C77.2525 10.7439 77.6605 10.6373 78.0071 10.4239C78.3591 10.2106 78.6818 9.90927 78.9751 9.51994V5.60794ZM80.3991 -6.48499e-05V11.7839H79.5511C79.3485 11.7839 79.2205 11.6853 79.1671 11.4879L79.0391 10.5039C78.6925 10.9199 78.2978 11.2559 77.8551 11.5119C77.4125 11.7679 76.9005 11.8959 76.3191 11.8959C75.8551 11.8959 75.4338 11.8079 75.0551 11.6319C74.6765 11.4506 74.3538 11.1866 74.0871 10.8399C73.8205 10.4933 73.6151 10.0613 73.4711 9.54394C73.3271 9.0266 73.2551 8.43194 73.2551 7.75994C73.2551 7.1626 73.3351 6.60794 73.4951 6.09594C73.6551 5.5786 73.8845 5.1306 74.1831 4.75194C74.4818 4.37327 74.8471 4.07727 75.2791 3.86393C75.7165 3.64527 76.2071 3.53594 76.7511 3.53594C77.2471 3.53594 77.6711 3.62127 78.0231 3.79193C78.3805 3.95727 78.6978 4.18927 78.9751 4.48794V-6.48499e-05H80.3991ZM88.0723 6.84794C88.0723 6.51727 88.0243 6.21594 87.9283 5.94394C87.8376 5.6666 87.7016 5.42927 87.5203 5.23194C87.3443 5.02927 87.1283 4.8746 86.8723 4.76794C86.6163 4.65594 86.3256 4.59994 86.0003 4.59994C85.3176 4.59994 84.7763 4.79994 84.3763 5.19994C83.9816 5.5946 83.7363 6.14394 83.6403 6.84794H88.0723ZM89.2243 10.6479C89.0483 10.8613 88.8376 11.0479 88.5923 11.2079C88.3469 11.3626 88.0829 11.4906 87.8003 11.5919C87.5229 11.6933 87.2349 11.7679 86.9363 11.8159C86.6376 11.8693 86.3416 11.8959 86.0483 11.8959C85.4883 11.8959 84.9709 11.8026 84.4963 11.6159C84.0269 11.4239 83.6189 11.1466 83.2723 10.7839C82.9309 10.4159 82.6643 9.9626 82.4723 9.42394C82.2803 8.88527 82.1843 8.2666 82.1843 7.56794C82.1843 7.0026 82.2696 6.4746 82.4403 5.98394C82.6163 5.49327 82.8669 5.06927 83.1923 4.71194C83.5176 4.34927 83.9149 4.0666 84.3843 3.86393C84.8536 3.65594 85.3816 3.55194 85.9683 3.55194C86.4536 3.55194 86.9016 3.6346 87.3123 3.79994C87.7283 3.95994 88.0856 4.1946 88.3843 4.50394C88.6883 4.80794 88.9256 5.1866 89.0963 5.63994C89.2669 6.08794 89.3523 6.59994 89.3523 7.17594C89.3523 7.39994 89.3283 7.54927 89.2803 7.62394C89.2323 7.6986 89.1416 7.73594 89.0083 7.73594H83.5923C83.6083 8.24794 83.6776 8.69327 83.8003 9.07194C83.9283 9.4506 84.1043 9.76794 84.3283 10.0239C84.5523 10.2746 84.8189 10.4639 85.1283 10.5919C85.4376 10.7146 85.7843 10.7759 86.1683 10.7759C86.5256 10.7759 86.8323 10.7359 87.0883 10.6559C87.3496 10.5706 87.5736 10.4799 87.7603 10.3839C87.9469 10.2879 88.1016 10.1999 88.2243 10.1199C88.3523 10.0346 88.4616 9.99194 88.5523 9.99194C88.6696 9.99194 88.7603 10.0373 88.8243 10.1279L89.2243 10.6479ZM91.1014 11.7839V3.67994H91.9574C92.1601 3.67994 92.2854 3.7786 92.3334 3.97593L92.4374 4.80794C92.7361 4.43994 93.0721 4.1386 93.4454 3.90393C93.8187 3.66927 94.2507 3.55194 94.7414 3.55194C95.2854 3.55194 95.7254 3.70394 96.0614 4.00794C96.4027 4.31194 96.6481 4.7226 96.7974 5.23994C96.9147 4.9466 97.0641 4.69327 97.2454 4.47994C97.4321 4.2666 97.6401 4.0906 97.8694 3.95194C98.0987 3.81327 98.3414 3.71194 98.5974 3.64793C98.8587 3.58394 99.1227 3.55194 99.3894 3.55194C99.8161 3.55194 100.195 3.62127 100.525 3.75994C100.861 3.89327 101.144 4.0906 101.373 4.35194C101.608 4.61327 101.787 4.93594 101.909 5.31994C102.032 5.6986 102.093 6.13327 102.093 6.62394V11.7839H100.661V6.62394C100.661 5.98927 100.523 5.50927 100.245 5.18394C99.9681 4.85327 99.5681 4.68794 99.0454 4.68794C98.8107 4.68794 98.5867 4.7306 98.3734 4.81594C98.1654 4.89594 97.9814 5.01594 97.8214 5.17594C97.6614 5.33594 97.5334 5.5386 97.4374 5.78394C97.3467 6.02394 97.3014 6.30394 97.3014 6.62394V11.7839H95.8694V6.62394C95.8694 5.97327 95.7387 5.48794 95.4774 5.16794C95.2161 4.84794 94.8347 4.68794 94.3334 4.68794C93.9814 4.68794 93.6561 4.78394 93.3574 4.97594C93.0587 5.1626 92.7841 5.4186 92.5334 5.74394V11.7839H91.1014ZM111.047 3.67994L106.527 14.1759C106.479 14.2826 106.417 14.3679 106.343 14.4319C106.273 14.4959 106.164 14.5279 106.015 14.5279H104.959L106.439 11.3119L103.095 3.67994H104.327C104.449 3.67994 104.545 3.71194 104.615 3.77594C104.689 3.8346 104.74 3.90127 104.767 3.97593L106.935 9.07994C107.02 9.30394 107.092 9.5386 107.151 9.78394C107.225 9.53327 107.305 9.29594 107.391 9.07194L109.495 3.97593C109.527 3.8906 109.58 3.82127 109.655 3.76793C109.735 3.70927 109.823 3.67994 109.919 3.67994H111.047Z" fill="#444444"/>
</svg>
